<svg width="182" height="44" xmlns="http://www.w3.org/2000/svg" viewBox="0 0 191.16 44"><defs><style>.cls-1{fill:#322153;}.cls-2{fill:#29a361;}.cls-3{fill:#248f55;}.cls-4{fill:#34cb79;}.cls-5{fill:#2fb86e;}</style></defs><path class="cls-1" d="M72,33.83V11.66H87v4.19H77V20.2h8.87v4.1H77v5.34H87.71v4.19Z" transform="translate(0)"/><path class="cls-1" d="M89.91,25.42A9.92,9.92,0,0,1,90.49,22a8.25,8.25,0,0,1,4.45-4.73,8.92,8.92,0,0,1,3.64-.71,12.24,12.24,0,0,1,4.64.93l-1,3.81a12.77,12.77,0,0,0-1.47-.45A7.56,7.56,0,0,0,99,20.65,3.83,3.83,0,0,0,95.8,22a5.48,5.48,0,0,0-1,3.46,5.69,5.69,0,0,0,1,3.52,4.13,4.13,0,0,0,3.42,1.24A11.2,11.2,0,0,0,101,30a7.22,7.22,0,0,0,1.83-.51l.67,3.91a11.49,11.49,0,0,1-2.08.6,13.74,13.74,0,0,1-2.75.26,10.54,10.54,0,0,1-4-.67,7.24,7.24,0,0,1-4.32-4.67A12.48,12.48,0,0,1,89.91,25.42Z" transform="translate(0)"/><path class="cls-1" d="M121.64,25.38a11.18,11.18,0,0,1-.57,3.65,8.12,8.12,0,0,1-1.67,2.82,7.54,7.54,0,0,1-2.62,1.79,8.54,8.54,0,0,1-3.39.64,8.64,8.64,0,0,1-3.39-.64,7.65,7.65,0,0,1-2.6-1.79A8.48,8.48,0,0,1,105.71,29a10.43,10.43,0,0,1-.61-3.65,10.17,10.17,0,0,1,.61-3.61A8.53,8.53,0,0,1,107.43,19a8.24,8.24,0,0,1,2.63-1.79,8.67,8.67,0,0,1,3.33-.64,8.51,8.51,0,0,1,3.32.64A7.72,7.72,0,0,1,119.34,19a8.33,8.33,0,0,1,1.7,2.79A10.4,10.4,0,0,1,121.64,25.38Zm-4.86,0a5.8,5.8,0,0,0-.9-3.45,2.8,2.8,0,0,0-2.49-1.28,2.9,2.9,0,0,0-2.53,1.28,5.8,5.8,0,0,0-.9,3.45,6.1,6.1,0,0,0,.9,3.52,2.9,2.9,0,0,0,2.53,1.28,2.8,2.8,0,0,0,2.49-1.28A6.1,6.1,0,0,0,116.78,25.38Z" transform="translate(0)"/><path class="cls-1" d="M132.06,34.15a12,12,0,0,1-3.4-.45,5.15,5.15,0,0,1-2-1.15,4.18,4.18,0,0,1-1-1.82,10.74,10.74,0,0,1-.25-2.43V9.77L130.1,9V27.34a6.66,6.66,0,0,0,.1,1.15,2,2,0,0,0,.35.86,2,2,0,0,0,.8.58,4.47,4.47,0,0,0,1.38.29Z" transform="translate(0)"/><path class="cls-1" d="M144.66,25.54a10.34,10.34,0,0,1,.67-3.9,8.6,8.6,0,0,1,1.83-2.82,7.52,7.52,0,0,1,2.56-1.69,8.06,8.06,0,0,1,3-.58,7.41,7.41,0,0,1,5.66,2.21q2.09,2.18,2.08,6.43,0,.42,0,.93c0,.32,0,.61-.07.86H149.56a3.14,3.14,0,0,0,1.37,2.34,5.51,5.51,0,0,0,3.27.86,14.42,14.42,0,0,0,2.56-.22,10.08,10.08,0,0,0,2.08-.61l.64,3.87a6.65,6.65,0,0,1-1,.39,11.12,11.12,0,0,1-1.44.32c-.51.1-1.06.19-1.66.25a15.46,15.46,0,0,1-1.79.1,10.68,10.68,0,0,1-4-.67,8.06,8.06,0,0,1-2.79-1.83A7.89,7.89,0,0,1,145.17,29,11.35,11.35,0,0,1,144.66,25.54Zm11.2-1.82a4.65,4.65,0,0,0-.22-1.18,2.63,2.63,0,0,0-.55-1,2.55,2.55,0,0,0-.93-.73,2.81,2.81,0,0,0-1.37-.29,3,3,0,0,0-1.38.29,2.71,2.71,0,0,0-1,.7,3.32,3.32,0,0,0-.6,1.06,6.56,6.56,0,0,0-.29,1.18Z" transform="translate(0)"/><path class="cls-1" d="M180,12.81l4.77-.77v5h5.73v4h-5.73v5.92a4.86,4.86,0,0,0,.51,2.4,2.3,2.3,0,0,0,2.14.89,10.47,10.47,0,0,0,1.57-.12,9.38,9.38,0,0,0,1.51-.42l.67,3.71a13.13,13.13,0,0,1-1.92.61,11.24,11.24,0,0,1-2.59.26,8.62,8.62,0,0,1-3.24-.52,5.21,5.21,0,0,1-2-1.47,5.65,5.65,0,0,1-1.09-2.3,14.41,14.41,0,0,1-.29-3Z" transform="translate(0)"/><path class="cls-2" d="M14.64,1.85l-4.57,8.74a1.19,1.19,0,0,0,.43,1.58l7.17,4.22A1.11,1.11,0,0,0,19.22,16L28,0H17.64A3.4,3.4,0,0,0,14.64,1.85Z" transform="translate(0)"/><path class="cls-3" d="M28,0,19.22,16a1.11,1.11,0,0,1-1.55.44l-1.87-1.1A1.12,1.12,0,0,0,17,14.71L25.05,0Z" transform="translate(0)"/><path class="cls-4" d="M37.55,8.46,34.4,2a3.4,3.4,0,0,0-3-1.95H22.23l7,12.32-.07,0a.57.57,0,0,0,0,1l6.05,2.41a.54.54,0,0,0,.7-.33l2.34-6.29A.56.56,0,0,0,37.55,8.46Z" transform="translate(0)"/><path class="cls-5" d="M38.28,9.18l-2.34,6.29a.54.54,0,0,1-.7.33l-1.83-.73,2.18-5.89a.57.57,0,0,0-.36-.75,1,1,0,0,1-.62-.52L31.72,2a3.4,3.4,0,0,0-3-1.95h2.68a3.4,3.4,0,0,1,3,2l3.15,6.51A.56.56,0,0,1,38.28,9.18Z" transform="translate(0)"/><path class="cls-2" d="M31.46,33.56a.48.48,0,0,0-.81-.23l-4.73,4.9a.5.5,0,0,0,0,.7l4.75,4.92a.48.48,0,0,0,.81-.22h7a3.4,3.4,0,0,0,3-1.94l4-8.13Z" transform="translate(0)"/><path class="cls-3" d="M37.35,33.56l2.26,3.55a2.73,2.73,0,0,1,.15,2.68l-.93,1.9a3.4,3.4,0,0,1-3,1.94h2.66a3.4,3.4,0,0,0,3-1.94l4-8.13Z" transform="translate(0)"/><path class="cls-2" d="M21.94,42.69V34a1.16,1.16,0,0,0-1.14-1.18H2.07L6.89,42a3.4,3.4,0,0,0,3,1.84H20.8A1.16,1.16,0,0,0,21.94,42.69Z" transform="translate(0)"/><path class="cls-3" d="M10,32.86l-4.16,7.2-3.78-7.2Z" transform="translate(0)"/><path class="cls-3" d="M21.93,34v8.65a1.15,1.15,0,0,1-1.13,1.18h-3A1.16,1.16,0,0,0,19,42.69V34a1.16,1.16,0,0,0-1.14-1.18h3A1.15,1.15,0,0,1,21.93,34Z" transform="translate(0)"/><path class="cls-4" d="M12.78,25.21l-.84-6.56a.57.57,0,0,0-.64-.51L5,19a.6.6,0,0,0-.33,1l-4,6a3.62,3.62,0,0,0-.19,3.7L4.78,38l7.09-12.27h0A.57.57,0,0,0,12.78,25.21Z" transform="translate(0)"/><path class="cls-5" d="M11.87,25.76h0L4.78,38,3.32,35.24l5.77-10L9.25,25a.39.39,0,0,1,.43-.18h0a.58.58,0,0,0,.66-.66L9.6,18.37l1.7-.23a.57.57,0,0,1,.64.51l.84,6.56A.57.57,0,0,1,11.87,25.76Z" transform="translate(0)"/><path class="cls-4" d="M47.4,25.56l-5.49-8.24a1.1,1.1,0,0,0-1.5-.35l-7.15,4.27a1.2,1.2,0,0,0-.38,1.67L43,38.72l4.68-9.56A3.62,3.62,0,0,0,47.4,25.56Z" transform="translate(0)"/><path class="cls-5" d="M47.63,29.16,43,38.71l-1.56-2.46,3.47-7.09a3.65,3.65,0,0,0-.24-3.6l-5.29-7.95L40.41,17a1.1,1.1,0,0,1,1.5.35l5.49,8.24A3.62,3.62,0,0,1,47.63,29.16Z" transform="translate(0)"/><path class="cls-1" d="M142,34.15a11.88,11.88,0,0,1-3.39-.45,5.12,5.12,0,0,1-2.05-1.15,4.18,4.18,0,0,1-1-1.82,10.74,10.74,0,0,1-.25-2.43V9.77L140.09,9V27.34a6.71,6.71,0,0,0,.09,1.15,2.16,2.16,0,0,0,.35.86,2.12,2.12,0,0,0,.8.58,4.54,4.54,0,0,0,1.38.29Z" transform="translate(0)"/><path class="cls-1" d="M163.43,25.42A9.92,9.92,0,0,1,164,22a8.2,8.2,0,0,1,4.44-4.73,9,9,0,0,1,3.65-.71,12.34,12.34,0,0,1,4.64.93l-1,3.81a12.77,12.77,0,0,0-1.47-.45,7.62,7.62,0,0,0-1.79-.19A3.83,3.83,0,0,0,169.32,22a5.42,5.42,0,0,0-1,3.46,5.69,5.69,0,0,0,1,3.52,4.15,4.15,0,0,0,3.43,1.24,11.29,11.29,0,0,0,1.85-.16,7.47,7.47,0,0,0,1.83-.51l.67,3.91A11.73,11.73,0,0,1,175,34a13.74,13.74,0,0,1-2.75.26,10.54,10.54,0,0,1-4-.67,7.74,7.74,0,0,1-2.75-1.89,7.55,7.55,0,0,1-1.57-2.78A12.48,12.48,0,0,1,163.43,25.42Z" transform="translate(0)"/></svg>